<?xml version="1.0" standalone="no"?>
<!DOCTYPE svg PUBLIC "-//W3C//DTD SVG 20010904//EN"
 "http://www.w3.org/TR/2001/REC-SVG-20010904/DTD/svg10.dtd">
<svg version="1.0" xmlns="http://www.w3.org/2000/svg"
 width="512.000000pt" height="512.000000pt" viewBox="0 0 512.000000 512.000000"
 preserveAspectRatio="xMidYMid meet">
<metadata>
Created by potrace 1.11, written by Peter Selinger 2001-2013
</metadata>
<g transform="translate(0.000000,512.000000) scale(0.100000,-0.100000)"
fill="#000000" stroke="none">
<path d="M1484 4459 c-71 -27 -137 -88 -171 -157 l-28 -57 -3 -1642 -2 -1643
-345 0 c-341 0 -344 0 -365 -22 -58 -62 20 -206 145 -268 l50 -25 1407 -3
1406 -2 59 21 c76 29 151 104 181 183 l22 58 0 1629 0 1629 284 0 c156 0 292
3 301 6 23 9 45 57 39 89 -12 69 -81 152 -158 193 l-51 27 -1360 2 c-1335 2
-1361 2 -1411 -18z"/>
</g>
</svg>
