<?xml version="1.0" standalone="no"?>
<!DOCTYPE svg PUBLIC "-//W3C//DTD SVG 20010904//EN"
 "http://www.w3.org/TR/2001/REC-SVG-20010904/DTD/svg10.dtd">
<svg version="1.0" xmlns="http://www.w3.org/2000/svg"
 width="512.000000pt" height="512.000000pt" viewBox="0 0 512.000000 512.000000"
 preserveAspectRatio="xMidYMid meet">
<metadata>
Created by potrace 1.11, written by Peter Selinger 2001-2013
</metadata>
<g transform="translate(0.000000,512.000000) scale(0.100000,-0.100000)"
fill="#000000" stroke="none">
<path d="M2166 5098 c-33 -30 -37 -57 -21 -148 7 -41 16 -97 19 -125 4 -27 9
-61 11 -75 2 -14 11 -68 19 -120 8 -52 20 -129 26 -170 6 -41 14 -86 16 -100
2 -14 9 -56 15 -95 6 -38 14 -95 19 -125 5 -30 13 -89 19 -130 6 -41 16 -100
21 -130 5 -30 11 -71 14 -90 11 -77 28 -186 32 -210 3 -21 42 -271 59 -390 3
-19 10 -64 16 -100 6 -36 13 -83 15 -105 3 -22 7 -46 9 -53 3 -9 -1 -11 -13
-8 -17 5 -134 31 -185 40 -15 2 -62 12 -104 20 -43 9 -89 18 -103 21 -14 3
-47 9 -75 15 -27 6 -61 12 -75 15 -14 3 -36 7 -50 10 -14 3 -36 8 -50 11 -14
3 -36 7 -50 10 -14 2 -116 23 -228 45 -112 22 -212 42 -224 44 -11 3 -35 -2
-53 -9 -37 -16 -59 -63 -46 -99 8 -20 168 -374 248 -547 19 -41 79 -172 133
-290 54 -118 119 -259 144 -313 25 -55 46 -100 46 -102 0 -2 20 -45 44 -97 24
-51 53 -115 66 -143 36 -79 120 -264 152 -335 17 -36 78 -168 135 -295 410
-898 408 -894 430 -910 8 -6 29 -12 47 -13 39 -3 86 38 86 74 0 13 -13 108
-29 211 -30 190 -36 225 -46 298 -3 22 -10 65 -15 95 -5 30 -12 75 -15 100 -3
25 -8 52 -10 60 -2 8 -6 35 -9 60 -3 25 -8 56 -11 70 -3 14 -7 45 -10 70 -3
25 -8 56 -10 70 -6 35 -10 61 -40 255 -22 150 -36 239 -40 255 -1 3 -5 32 -9
65 -4 32 -10 68 -12 80 -2 11 -6 35 -9 54 -7 54 -15 105 -20 131 -5 25 -15 89
-20 125 -1 11 -6 41 -10 68 -6 40 -5 47 9 47 9 0 128 -22 264 -50 136 -27 258
-51 272 -54 14 -2 161 -32 327 -65 321 -65 335 -66 367 -19 24 34 20 58 -30
165 -25 54 -65 141 -89 193 -24 52 -57 124 -73 160 -17 36 -66 144 -110 240
-44 96 -91 200 -105 230 -14 30 -87 190 -162 355 -147 322 -166 365 -213 465
-16 36 -39 85 -50 110 -23 52 -44 96 -194 425 -60 132 -119 260 -130 285 -167
366 -211 458 -229 473 -29 24 -73 21 -103 -5z"/>
</g>
</svg>
